<?xml version="1.0" encoding="UTF-8" standalone="no"?><!DOCTYPE svg PUBLIC "-//W3C//DTD SVG 1.1//EN" "http://www.w3.org/Graphics/SVG/1.1/DTD/svg11.dtd"><svg width="100%" height="100%" viewBox="0 0 496 149" version="1.1" xmlns="http://www.w3.org/2000/svg" xmlns:xlink="http://www.w3.org/1999/xlink" xml:space="preserve" xmlns:serif="http://www.serif.com/" style="fill-rule:evenodd;clip-rule:evenodd;stroke-linecap:round;stroke-linejoin:round;stroke-miterlimit:1.5;"><rect id="Artboard2" x="0" y="0" width="495.5" height="148.12" style="fill:none;"/><g><g transform="matrix(9.78323,0,0,9.78323,-1156.93,-2073.11)"><g transform="matrix(12,0,0,12,131.292,224.274)"><path d="M0.2,0.002l-0.136,0l0,-0.292l-0.052,0l0,-0.095l0.051,0l0,-0.415l0.133,0c0.029,0 0.055,0.01 0.077,0.029c0.022,0.019 0.033,0.047 0.033,0.082l0,0.296c0,0.011 -0.001,0.021 -0.004,0.03c-0.002,0.009 -0.006,0.017 -0.011,0.024c0.006,0.007 0.011,0.015 0.014,0.026c0.003,0.011 0.005,0.025 0.005,0.042l0,0.16c0,0.031 -0.011,0.057 -0.034,0.079c-0.023,0.022 -0.048,0.033 -0.076,0.033l0,0.001Zm0.013,-0.272c0,-0.005 -0.001,-0.008 -0.003,-0.011c-0.002,-0.003 -0.004,-0.005 -0.007,-0.006c-0.001,-0.001 -0.003,-0.001 -0.004,-0.002c-0.001,-0.001 -0.002,-0.001 -0.003,-0.001l-0.034,0l0,0.198l0.037,0c0.003,0 0.006,-0.001 0.009,-0.004c0.002,-0.003 0.003,-0.006 0.004,-0.01c0.001,-0.001 0.001,-0.001 0.001,-0.002l0,-0.003l0,-0.159Zm-0.005,-0.419c0,-0.005 -0.001,-0.008 -0.004,-0.011c-0.002,-0.003 -0.005,-0.004 -0.008,-0.004l-0.035,0l0,0.319l0.039,0c0.002,0 0.004,-0.001 0.005,-0.002c0.001,-0.001 0.002,-0.003 0.003,-0.005l0,-0.001l0,-0.001l0,-0.295Z" style="fill:#fff;fill-rule:nonzero;"/></g><g transform="matrix(12,0,0,12,135.396,224.274)"><path d="M0.216,0.002l0,-0.292l-0.051,0l0,0.292l-0.1,0l0,-0.292l-0.048,0l0,-0.095l0.048,0l0,-0.304c0,-0.033 0.011,-0.059 0.034,-0.078c0.022,-0.018 0.046,-0.029 0.073,-0.032c0.003,0 0.007,0 0.01,0c0.003,-0.001 0.006,-0.001 0.009,-0.001c0.006,0 0.012,0 0.018,0.002c0.007,0.001 0.013,0.002 0.02,0.004c0.021,0.007 0.041,0.019 0.059,0.036c0.018,0.018 0.027,0.041 0.027,0.069l0,0.691l-0.099,0Zm0,-0.692c0,-0.003 -0.001,-0.005 -0.004,-0.007c-0.003,-0.002 -0.006,-0.004 -0.009,-0.005c-0.002,-0.001 -0.004,-0.001 -0.006,-0.001c-0.001,-0.001 -0.003,-0.001 -0.004,-0.001l-0.009,0c-0.005,0.001 -0.009,0.002 -0.013,0.004c-0.004,0.001 -0.006,0.005 -0.006,0.01l0,0.305l0.051,0l0,-0.305Z" style="fill:#fff;fill-rule:nonzero;"/></g><g transform="matrix(12,0,0,12,139.572,224.274)"><path d="M0.209,-0.113l0,-0.158l0,-0.005c-0.001,-0.004 -0.002,-0.007 -0.004,-0.01c-0.003,-0.003 -0.006,-0.004 -0.011,-0.004l-0.036,0l0,0.291l-0.098,-0.001l0,-0.291l-0.046,0l0,-0.094l0.046,0l0,-0.415l0.136,0c0.031,0 0.057,0.011 0.079,0.032c0.021,0.022 0.032,0.048 0.032,0.079l0,0.295c0,0.011 -0.001,0.021 -0.003,0.03c-0.003,0.009 -0.007,0.018 -0.012,0.026c0.005,0.007 0.009,0.017 0.012,0.028c0.002,0.011 0.003,0.024 0.003,0.039l0,0.158c0,0.004 0.003,0.007 0.009,0.01c0.005,0.002 0.012,0.004 0.019,0.005c0.007,0.001 0.013,0.001 0.019,0.002c0.005,0 0.008,0 0.008,0l0,0.099c-0.043,-0.003 -0.08,-0.011 -0.109,-0.023c-0.029,-0.012 -0.044,-0.043 -0.044,-0.093Zm0.001,-0.576c0,-0.004 -0.001,-0.007 -0.004,-0.01c-0.002,-0.003 -0.005,-0.005 -0.009,-0.005l-0.04,0l0,0.319l0.036,0c0.005,0 0.009,0 0.012,-0.001c0.003,-0.001 0.005,-0.004 0.005,-0.008l0,-0.295Z" style="fill:#fff;fill-rule:nonzero;"/></g><g transform="matrix(12,0,0,12,146.556,224.274)"><rect x="0.013" y="-0.8" width="0.1" height="0.802" style="fill:#fff;fill-rule:nonzero;"/></g><g transform="matrix(12,0,0,12,148.596,224.274)"><path d="M0.139,0.003c-0.037,-0.001 -0.066,-0.012 -0.089,-0.033c-0.023,-0.02 -0.034,-0.047 -0.034,-0.08l0,-0.232c0,-0.012 0.002,-0.023 0.006,-0.032c0.004,-0.01 0.009,-0.019 0.016,-0.027c-0.007,-0.01 -0.013,-0.021 -0.017,-0.032c-0.003,-0.012 -0.005,-0.024 -0.005,-0.036l0,-0.219c0,-0.033 0.013,-0.059 0.038,-0.08c0.026,-0.021 0.055,-0.032 0.088,-0.032c0.031,0 0.059,0.009 0.083,0.027c0.024,0.018 0.036,0.046 0.036,0.084l0,0.22c0,0.015 -0.002,0.029 -0.005,0.04c-0.003,0.011 -0.008,0.021 -0.013,0.028c0.005,0.008 0.01,0.017 0.013,0.027c0.003,0.01 0.005,0.021 0.005,0.032l0,0.231c0,0.034 -0.011,0.061 -0.033,0.082c-0.021,0.021 -0.051,0.031 -0.089,0.031l0,0.001Zm0.024,-0.345c0,-0.005 -0.002,-0.008 -0.007,-0.009c-0.004,-0.001 -0.008,-0.002 -0.013,-0.002l-0.011,0c-0.004,0.001 -0.008,0.002 -0.011,0.004c-0.004,0.001 -0.006,0.004 -0.006,0.008l0,0.23c0,0.005 0.002,0.009 0.006,0.012c0.004,0.003 0.008,0.005 0.013,0.006c0.001,0.001 0.003,0.001 0.004,0.001l0.005,0c0.005,-0.001 0.009,-0.003 0.014,-0.006c0.004,-0.003 0.006,-0.008 0.006,-0.013l0,-0.231Zm0,-0.347c0,-0.003 -0.002,-0.006 -0.005,-0.008c-0.003,-0.003 -0.007,-0.004 -0.01,-0.005c-0.001,0 -0.003,0 -0.004,0c-0.001,-0.001 -0.003,-0.001 -0.004,-0.001l-0.003,0c-0.005,0.001 -0.01,0.002 -0.015,0.005c-0.005,0.002 -0.007,0.006 -0.007,0.011l0,0.218c0,0.007 0.003,0.012 0.008,0.015c0.005,0.003 0.01,0.004 0.017,0.004c0.007,0 0.012,-0.002 0.017,-0.005c0.004,-0.004 0.006,-0.009 0.006,-0.014l0,-0.22Z" style="fill:#fff;fill-rule:nonzero;"/></g><g transform="matrix(12,0,0,12,152.352,224.274)"><path d="M0.116,0.002l-0.1,0l0.15,-0.706l-0.125,0l0,-0.096l0.245,0l-0.17,0.802Z" style="fill:#fff;fill-rule:nonzero;"/></g></g><path d="M98.57,74.06l-92.82,0" style="fill:none;stroke:#f7d94b;stroke-width:3.5px;"/><path d="M98.57,55.264l-60.846,0" style="fill:none;stroke:#f7d94b;stroke-width:3.5px;"/><path d="M98.57,92.856l-46.41,0" style="fill:none;stroke:#f7d94b;stroke-width:3.5px;"/><path d="M387.954,74.06l92.82,0" style="fill:none;stroke:#f7d94b;stroke-width:3.5px;"/><path d="M387.954,55.264l60.846,0" style="fill:none;stroke:#f7d94b;stroke-width:3.5px;"/><path d="M387.954,92.856l46.41,0" style="fill:none;stroke:#f7d94b;stroke-width:3.5px;"/></g></svg>