<?xml version="1.0" encoding="UTF-8" standalone="no"?>
<!DOCTYPE svg PUBLIC "-//W3C//DTD SVG 1.1//EN" "http://www.w3.org/Graphics/SVG/1.1/DTD/svg11.dtd">
<svg width="100%" height="100%" viewBox="0 0 82 26" version="1.1" xmlns="http://www.w3.org/2000/svg" xmlns:xlink="http://www.w3.org/1999/xlink" xml:space="preserve" xmlns:serif="http://www.serif.com/" style="fill-rule:evenodd;clip-rule:evenodd;stroke-linejoin:round;stroke-miterlimit:2;">
    <g id="Artboard1" transform="matrix(1,0,0,1,-9.086,-37.319)">
        <rect x="9.086" y="37.319" width="81.828" height="25.366" style="fill:none;"/>
        <clipPath id="_clip1">
            <rect x="9.086" y="37.319" width="81.828" height="25.366"/>
        </clipPath>
        <g clip-path="url(#_clip1)">
            <g transform="matrix(1,0,0,1,0.086,0.319)">
                <rect x="0" y="0" width="100" height="100" style="fill:none;"/>
            </g>
            <g transform="matrix(1,0,0,1,0.086,0.319)">
                <path d="M89.26,58.49L89.26,49.781L88.881,49.781L88.881,48.939L88.6,48.939L88.6,49.781L88.159,49.781L88.159,49.453L87.718,49.453L87.718,49.781L87.339,49.781L87.339,48.608L87.193,48.608L87.193,49.781L86.765,49.781L86.765,49.441L85.478,49.441L85.478,49.781L85.128,49.781L85.128,51.213L82.646,51.213L82.646,48.899L82.23,48.899L82.23,48.608L81.791,48.608L81.791,48.899L81.545,48.899L81.545,47.983L81.399,47.983L81.399,48.899L80.835,48.899L80.835,48.523L79.427,48.523L79.427,48.899L79.118,48.899L78.235,50.222L78.235,53.419L77.079,53.419L77.079,59.096L75.866,59.096L75.866,47.135L74.874,44.599L74.874,43.166L74.489,43.166L74.489,44.655L73.606,47.19L73.606,56.781L72.118,56.781L72.118,47.52L71.454,47.52L71.454,46.11L71.184,46.11L71.184,47.521L70.766,47.521L70.766,47.126L69.86,47.126L69.86,47.521L69.456,47.521L69.456,46.184L69.323,46.184L69.323,47.521L68.784,47.521L68.784,47.188L66.983,47.188L66.983,47.521L66.66,47.521L66.66,58.105L64.676,58.105L64.676,49.892L64.428,49.892L64.428,49.123L64.344,49.123L64.344,49.892L64.086,49.892L64.086,49.729L63.688,49.729L63.688,49.892L63.436,49.892L63.436,49.466L63.364,49.466L63.364,49.892L62.913,49.892L62.913,50.332L62.722,50.332L62.722,50.188L62.587,50.188L62.587,50.332L62.407,50.332L62.407,49.656L62.366,49.656L62.366,50.332L62.206,50.332L62.206,50.109L61.655,50.109L61.655,50.332L61.48,50.332L61.48,56.671L59.274,56.671L59.274,49.065L58.758,49.065L58.758,48.915L58.463,48.915L58.463,49.065L58.227,49.065L58.227,48.459L57.643,48.459L57.643,47.96L57.466,47.96L57.466,48.459L56.897,48.459L56.897,48.358L56.394,48.358L56.394,48.459L56.186,48.459L56.186,48.088L56.137,48.088L56.137,48.459L55.857,48.459L55.857,48.845L55.696,48.845L55.696,48.7L55.34,48.7L55.34,48.844L55.114,48.844L55.114,48.143L55.015,48.143L55.015,48.844L54.587,48.844L54.587,57.663L52.55,57.663L52.55,43.938L52.297,43.938L52.297,43.574L51.697,43.574L51.697,43.938L51.556,43.938L51.096,43.868L51.096,43.011L50.888,43.011L50.888,43.837L50.472,43.773L50.472,43.428L49.81,43.428L49.81,43.673L49.553,43.634L49.553,43.012L49.455,43.012L49.455,43.619L49.021,43.553L49.021,49.314L48.598,49.418L48.598,49.075L48.352,49.075L48.352,49.477L48.034,49.554L48.034,48.548L47.9,48.548L47.9,49.587L47.582,49.665L47.582,49.369L46.883,49.369L46.883,49.836L46.652,49.893L46.652,59.374L45.274,59.374L45.274,54.909L44.613,54.909L44.613,54.247L43.952,54.247L43.952,53.807L43.401,53.807L43.401,53.035L43.167,53.035L43.167,52.285L43.048,52.285L43.048,53.035L42.81,53.035L42.81,52.864L42.323,52.864L42.323,53.035L42.213,53.035L42.213,52.496L42.139,52.496L42.139,53.035L41.968,53.035L41.968,53.697L41.196,53.697L41.196,54.248L40.755,54.248L40.755,54.965L40.424,54.965L40.424,59.375L39.653,59.375L39.653,57.832L38.606,57.832L38.22,39.862L37.503,39.862L37.503,39.256L36.756,39.256L36.756,37.319L36.67,37.319L36.67,39.256L35.959,39.256L35.959,39.807L35.132,39.807L34.69,57.867L33.742,57.867L33.742,52.245L33.448,52.245L33.448,51.217L33.154,51.217L33.154,50.114L32.823,50.114L31.28,48.571L29.737,50.077L29.296,50.077L29.296,51.105L29.111,51.105L29.111,52.098L28.854,52.098L28.854,55L28.56,55L28.56,50.591C26.797,49.93 25.475,50.591 25.475,50.591L25.475,58.601L24.666,58.601L24.666,54.595L23.967,54.595L23.49,53.971L22.938,53.971L22.424,53.2L21.983,53.2L21.652,52.575L21.377,52.575L21.377,52.19L21.11,52.19L21.11,52.576L20.981,52.576L20.981,51.777L20.926,51.777L20.926,52.576L20.632,52.576L20.632,52.347L19.88,52.347L19.88,52.576L19.632,52.576L19.118,53.237L18.75,53.237L18.382,53.863L18.014,53.863L17.5,54.524L16.84,54.524L16.84,55.92L15.738,55.92L15.002,55.186L14.561,55.186L14.561,54.79L14.488,54.79L14.488,55.186L14.341,55.186L14.341,55.061L14.194,55.061L14.194,55.186L14.029,55.186L14.029,54.607L13.919,54.607L13.919,55.186L13.662,55.186L13.662,55.048L13,55.048L13,55.186L12.725,55.186L11.843,55.847L11.843,56.729L10.079,56.729L10.079,57.978L9.086,57.978L9.086,62.685L90.914,62.685L90.914,58.49L89.26,58.49Z" style="fill-rule:nonzero;"/>
            </g>
        </g>
    </g>
</svg>
